<svg version="1.1" xmlns="http://www.w3.org/2000/svg" viewBox="-263.7 -3167.0249999999996 5876.4 3484.225"><desc>Created with Snap</desc><defs></defs><g><rect x="-263.7" y="-3167.0249999999996" width="5876.4" height="3484.225" fill="#9c1f16" style=""></rect><g transform="matrix(4.5197,0,0,4.5197,1771.3169,-2881.7727)">
  <g>
    <rect x="34.19858" y="218.31914" width="315.74498" height="179.06834" fill="#ffd348" style=""></rect>
    <polygon points="310.042 214.177 349.72 214.177 349.72 175.197 271.061 175.197 310.042 214.177" fill="#ffd348" style=""></polygon>
    <g>
      <polygon points="173.609 214.177 254.915 214.177 215.934 175.197 134.628 175.197 173.609 214.177" fill="#ffd348" style=""></polygon>
      <polygon points="79.501 175.197 33.975 175.197 33.975 214.177 118.482 214.177 79.501 175.197" fill="#ffd348" style=""></polygon>
    </g>
    <polygon points="313.175 157.868 349.063 174.793 365.69 139.536 294.546 105.984 313.175 157.868" fill="#ffd348" style=""></polygon>
    <g>
      <polygon points="189.777 99.673 263.315 134.354 244.685 82.47 171.147 47.789 189.777 99.673" fill="#ffd348" style=""></polygon>
      <polygon points="121.286 24.275 80.11 4.856 63.483 40.112 139.916 76.159 121.286 24.275" fill="#ffd348" style=""></polygon>
    </g>
  </g>
<desc>Created with Snap</desc><defs></defs></g><g><g transform="matrix(0.5,0,0,-0.5,0,0)"><path d="M538 614L351 1183Q347 1037 347 881Q347 668 354 422Q361 176 364 142Q368 109 374 84Q385 38 410 0L131 0Q169 54 176 116Q184 178 188 236Q196 354 196 553Q196 794 188 993L177 1268Q171 1420 128 1484Q112 1508 87 1530L478 1530Q517 1359 575 1167L757 586L1036 1530L1426 1530Q1377 1487 1362 1442Q1340 1373 1337 1282L1330 1105Q1317 794 1317 553Q1317 149 1354 40Q1361 20 1372 0L1057 0Q1084 53 1087 114Q1091 176 1094 284Q1106 639 1106 801Q1106 1068 1101 1198L733 0L538 614ZM2041 930Q1951 930 1911 840Q1872 750 1872 537Q1872 80 2041 80Q2131 80 2170 202Q2210 324 2210 537Q2210 750 2170 840Q2131 930 2041 930ZM1620 575Q1620 1030 2041 1030Q2462 1030 2462 575Q2462 299 2346 138Q2233 -20 2041 -20Q1849 -20 1736 138Q1620 299 1620 575ZM2572 1010L2941 1010Q2923 966 2923 913Q2923 861 2931 820Q2939 780 2953 726L3061 342L3099 219Q3158 396 3177 458L3213 580Q3272 781 3272 829Q3272 877 3267 899Q3263 922 3255 940Q3245 967 3216 1010L3580 1010Q3506 908 3481 857L3444 781Q3435 763 3419 729Q3223 282 3223 130Q3223 61 3249 0L2889 0Q2913 38 2917 71Q2922 105 2922 140Q2922 176 2904 243Q2886 310 2857 395Q2828 480 2790 574Q2753 669 2714 755Q2626 948 2572 1010ZM4048 1279Q4028 1246 3999 1223Q3970 1201 3933 1201Q3896 1201 3867 1223Q3838 1246 3818 1279Q3777 1347 3777 1423Q3777 1515 3861 1546Q3891 1557 3934 1557Q4053 1557 4082 1473Q4091 1449 4091 1419Q4091 1390 4080 1351Q4069 1312 4048 1279ZM4072 0L3777 0Q3823 158 3823 543Q3823 814 3775 916Q3763 942 3748 964L3715 1010L4070 1010Q4026 845 4026 501Q4026 158 4072 0ZM5027 340Q5063 316 5063 256Q5063 197 5047 152Q5031 107 4991 68Q4901 -20 4717 -20Q4503 -20 4391 138Q4292 279 4292 519Q4292 761 4426 899Q4553 1030 4770 1030Q4921 1030 5006 942Q5073 872 5073 780Q5073 689 5037 615Q5002 542 4933 489Q4791 379 4536 373Q4557 172 4662 104Q4700 80 4763 80Q4826 80 4897 146Q4968 212 5027 340ZM4530 499L4530 468Q4846 489 4846 774Q4846 881 4782 918Q4760 930 4724 930Q4688 930 4651 908Q4615 886 4588 836Q4530 727 4530 499ZM5911 1069Q5938 1009 5938 948Q5938 887 5932 847Q5927 807 5916 770Q5891 686 5845 641Q5814 796 5777 842Q5741 888 5704 904Q5668 920 5627 920Q5586 920 5560 912Q5534 904 5515 889Q5472 856 5472 814Q5472 772 5493 741Q5514 711 5548 684Q5583 658 5627 633L5717 582Q5833 517 5876 474Q5961 389 5961 295Q5961 172 5877 88Q5771 -20 5559 -20Q5366 -20 5269 70Q5241 96 5229 122Q5237 197 5296 263Q5353 327 5407 337Q5403 324 5403 298Q5403 272 5418 233Q5433 195 5461 162Q5524 86 5603 86Q5682 86 5719 122Q5756 158 5756 204Q5756 250 5735 281Q5714 312 5679 339Q5645 366 5601 391L5511 442Q5396 510 5353 558Q5267 654 5267 767Q5267 886 5367 960Q5462 1030 5604 1030L5780 1018Q5844 1018 5869 1033Q5894 1049 5911 1069ZM6978 513L6983 897Q6983 1300 6953 1412Q6939 1466 6919 1491Q6900 1516 6888 1530L7216 1530L7195 1502Q7150 1436 7145 1353Q7140 1270 7137 1185Q7135 1100 7133 1016Q7131 875 7131 701L7131 579Q7131 256 7027 116Q6924 -20 6691 -20Q6240 -20 6242 559L6243 1308Q6243 1466 6187 1530L6566 1530Q6507 1459 6507 1328Q6507 1252 6506 1172L6502 852Q6501 773 6501 689Q6501 388 6519 307Q6537 227 6563 182Q6623 80 6741 80Q6923 80 6965 346Q6978 425 6978 513ZM8185 370Q8212 331 8212 276Q8212 221 8204 181Q8197 141 8184 105Q8154 26 8108 0L7304 0Q7383 49 7407 85Q7453 153 7453 261Q7452 527 7452 742L7452 1266Q7452 1411 7404 1479Q7387 1504 7362 1530L7773 1530Q7714 1445 7706 1355Q7704 1325 7704 1289L7704 373Q7704 186 7724 149Q7744 113 7772 106Q7800 100 7857 100Q7914 100 7965 120Q8016 140 8056 176Q8124 238 8185 370ZM8611 1279Q8591 1246 8562 1223Q8533 1201 8496 1201Q8459 1201 8430 1223Q8401 1246 8381 1279Q8340 1347 8340 1423Q8340 1515 8424 1546Q8454 1557 8497 1557Q8616 1557 8645 1473Q8654 1449 8654 1419Q8654 1390 8643 1351Q8632 1312 8611 1279ZM8635 0L8340 0Q8386 158 8386 543Q8386 814 8338 916Q8326 942 8311 964L8278 1010L8633 1010Q8589 845 8589 501Q8589 158 8635 0ZM9151 498L9151 424Q9151 134 9190 0L8895 0Q8923 97 8930 229Q8945 548 8945 724Q8945 900 8944 960Q8943 1021 8942 1082Q8936 1297 8921 1355Q8907 1414 8894 1440Q8875 1482 8833 1530L9198 1530Q9170 1429 9165 1339L9158 1194Q9151 1029 9151 943Q9151 857 9152 827Q9154 797 9160 778Q9172 738 9220 740Q9269 742 9308 760Q9347 779 9372 808Q9422 864 9422 927Q9422 990 9407 1010L9696 1010Q9684 986 9674 961Q9665 937 9654 912Q9583 754 9430 683Q9440 476 9566 268Q9685 75 9828 0L9493 0Q9393 48 9331 322Q9310 415 9303 501Q9296 587 9281 613Q9266 640 9227 640Q9151 640 9151 498ZM10565 340Q10601 316 10601 256Q10601 197 10585 152Q10569 107 10529 68Q10439 -20 10255 -20Q10041 -20 9929 138Q9830 279 9830 519Q9830 761 9964 899Q10091 1030 10308 1030Q10459 1030 10544 942Q10611 872 10611 780Q10611 689 10575 615Q10540 542 10471 489Q10329 379 10074 373Q10095 172 10200 104Q10238 80 10301 80Q10364 80 10435 146Q10506 212 10565 340ZM10068 499L10068 468Q10384 489 10384 774Q10384 881 10320 918Q10298 930 10262 930Q10226 930 10189 908Q10153 886 10126 836Q10068 727 10068 499Z" fill="#ffffff" style=""></path></g></g></g></svg>